<svg width="20" height="20" viewBox="0 0 20 20" fill="none" xmlns="http://www.w3.org/2000/svg">
<path d="M15.0416 17.7417C14.9645 17.819 14.873 17.8802 14.7721 17.9221C14.6713 17.9639 14.5633 17.9854 14.4541 17.9854C14.345 17.9854 14.2369 17.9639 14.1361 17.9221C14.0353 17.8802 13.9437 17.819 13.8666 17.7417L12.1 15.975C12.0228 15.8979 11.9616 15.8063 11.9199 15.7055C11.8781 15.6047 11.8566 15.4966 11.8566 15.3875C11.8566 15.2784 11.8781 15.1704 11.9199 15.0696C11.9616 14.9688 12.0228 14.8772 12.1 14.8C12.2558 14.6442 12.4671 14.5567 12.6875 14.5567C12.7966 14.5567 12.9046 14.5782 13.0054 14.6199C13.1062 14.6617 13.1978 14.7229 13.275 14.8L14.45 15.975L17.4 13.025C17.4771 12.9479 17.5687 12.8867 17.6695 12.8449C17.7703 12.8032 17.8784 12.7817 17.9875 12.7817C18.0966 12.7817 18.2046 12.8032 18.3054 12.8449C18.4062 12.8867 18.4978 12.9479 18.575 13.025C18.6521 13.1022 18.7133 13.1938 18.7551 13.2946C18.7968 13.3954 18.8183 13.5034 18.8183 13.6125C18.8183 13.7216 18.7968 13.8297 18.7551 13.9305C18.7133 14.0313 18.6521 14.1229 18.575 14.2L15.0416 17.7417ZM10.0666 16.6667H3.33329C2.41663 16.6667 1.66663 15.9167 1.66663 15V5.00004C1.66663 4.08337 2.41663 3.33337 3.33329 3.33337H16.6666C17.5833 3.33337 18.3333 4.08337 18.3333 5.00004V10.5667C17.4446 10.1439 16.4632 9.95302 15.4808 10.0118C14.4984 10.0706 13.5469 10.3772 12.7149 10.903C11.883 11.4288 11.1977 12.1567 10.7229 13.0188C10.2482 13.8809 9.99949 14.8492 9.99996 15.8334C9.99996 16.1167 10.025 16.3917 10.0666 16.6667ZM9.55829 10.5584C9.82496 10.725 10.175 10.725 10.4416 10.5584L16.3333 6.87504C16.4169 6.82813 16.49 6.76476 16.5484 6.68875C16.6067 6.61275 16.6491 6.52569 16.6728 6.43285C16.6966 6.34001 16.7012 6.24332 16.6865 6.14863C16.6718 6.05394 16.638 5.96322 16.5872 5.88196C16.5364 5.8007 16.4697 5.73059 16.391 5.67587C16.3124 5.62115 16.2234 5.58297 16.1295 5.56362C16.0357 5.54428 15.9389 5.54418 15.845 5.56333C15.7511 5.58248 15.6621 5.62049 15.5833 5.67504L9.99996 9.16671L4.41663 5.67504C4.33785 5.62049 4.24881 5.58248 4.15492 5.56333C4.06103 5.54418 3.96423 5.54428 3.87037 5.56362C3.77652 5.58297 3.68757 5.62115 3.6089 5.67587C3.53023 5.73059 3.46348 5.8007 3.41269 5.88196C3.36191 5.96322 3.32813 6.05394 3.31342 6.14863C3.29871 6.24332 3.30337 6.34001 3.32711 6.43285C3.35084 6.52569 3.39317 6.61275 3.45153 6.68875C3.50989 6.76476 3.58307 6.82813 3.66663 6.87504L9.55829 10.5584Z" fill="white"/>
</svg>
